<?xml version="1.0" standalone="no"?>
<!DOCTYPE svg PUBLIC "-//W3C//DTD SVG 20010904//EN"
 "http://www.w3.org/TR/2001/REC-SVG-20010904/DTD/svg10.dtd">
<svg version="1.0" xmlns="http://www.w3.org/2000/svg"
 width="1000.000000pt" height="1000.000000pt" viewBox="0 0 1000.000000 1000.000000"
 preserveAspectRatio="xMidYMid meet">

<g transform="translate(0.000000,1000.000000) scale(0.100000,-0.100000)"
fill="#000000" stroke="none">
<path d="M5011 9097 c1 -29 3 -36 7 -21 6 17 11 20 30 13 12 -5 22 -15 22 -24
0 -8 8 -15 18 -15 10 0 23 -5 29 -11 6 -6 56 -13 112 -16 l101 -6 0 59 c0 32
-4 54 -8 48 -4 -6 -16 -9 -27 -7 -11 2 -42 6 -70 8 -114 9 -149 8 -153 -3 -2
-7 -10 -12 -18 -12 -9 0 -13 4 -10 9 3 5 -3 11 -14 14 -18 5 -20 0 -19 -36z"/>
<path d="M5680 9070 l0 -50 -171 0 -170 0 3 -26 c3 -23 8 -27 46 -30 24 -2 51
-8 60 -13 9 -5 55 -17 102 -26 47 -9 93 -21 102 -26 15 -8 17 -2 20 53 l3 63
167 3 166 2 4 -109 c3 -113 11 -138 32 -108 18 23 26 22 69 -14 33 -27 37 -28
37 -11 0 30 27 35 34 7 5 -18 15 -24 51 -29 43 -7 56 -18 35 -31 -6 -4 -8 -10
-5 -15 3 -5 -7 -11 -22 -13 -16 -3 1 -4 37 -3 l65 1 3 163 2 162 95 0 c52 0
95 4 95 8 0 4 -35 16 -77 26 -43 9 -86 19 -95 22 -14 4 -18 -1 -18 -25 l0 -31
-169 0 -170 0 -3 48 -3 47 -162 2 -163 3 0 -50z"/>
<path d="M6686 8933 c-3 -25 -7 -69 -8 -97 -1 -36 -2 -41 -5 -18 -3 20 -10 32
-20 32 -9 0 -13 -6 -10 -13 4 -10 -2 -13 -19 -9 -17 3 -24 0 -24 -12 0 -9 -7
-16 -15 -16 -20 0 -19 -6 6 -31 11 -11 27 -18 35 -15 8 3 14 -1 14 -9 0 -24
28 -17 33 8 2 12 5 3 6 -20 l1 -43 -53 0 c-103 0 -267 -13 -267 -21 0 -5 7 -6
15 -3 8 4 15 2 15 -4 0 -21 61 -33 173 -35 l116 -2 5 28 c5 25 9 27 60 27 30
0 58 -4 61 -10 3 -6 -1 -7 -12 -4 -10 3 -6 -2 8 -10 15 -8 40 -14 57 -13 35 2
32 17 -4 17 -13 0 -24 5 -24 10 0 6 15 10 33 10 52 0 61 12 36 44 -12 16 -34
58 -49 95 -24 59 -34 71 -92 113 l-66 46 -6 -45z"/>
<path d="M7025 8550 c-4 -6 -4 -27 -1 -46 8 -42 36 -47 36 -6 -1 33 -25 69
-35 52z"/>
<path d="M2536 8405 c-16 -14 -34 -26 -40 -26 -6 -1 -15 -2 -21 -4 -5 -1 -16
-3 -22 -3 -24 -3 -13 -22 13 -22 34 0 59 14 84 50 26 36 24 37 -14 5z"/>
<path d="M7363 8221 c1 -11 6 -17 14 -14 10 4 11 9 2 19 -15 19 -18 18 -16 -5z"/>
<path d="M2233 8206 c-13 -15 0 -42 16 -32 12 8 15 46 4 46 -5 -1 -13 -7 -20
-14z"/>
<path d="M2180 8143 c1 -5 7 -19 15 -33 12 -22 14 -23 20 -7 4 9 2 24 -5 32
-13 16 -30 20 -30 8z"/>
<path d="M2120 8094 c0 -8 -4 -12 -10 -9 -6 3 -7 -1 -4 -9 3 -9 12 -16 19 -16
15 0 28 27 19 41 -9 14 -24 10 -24 -7z"/>
<path d="M2060 8030 c0 -6 7 -10 15 -10 8 0 15 2 15 4 0 2 -7 6 -15 10 -8 3
-15 1 -15 -4z"/>
<path d="M1935 7920 c3 -5 10 -10 16 -10 5 0 9 5 9 10 0 6 -7 10 -16 10 -8 0
-12 -4 -9 -10z"/>
<path d="M1905 7840 c-10 -11 -14 -20 -9 -20 5 0 17 9 27 20 9 11 13 20 8 20
-4 0 -16 -9 -26 -20z"/>
<path d="M1826 7775 c4 -8 10 -12 15 -9 14 8 10 24 -6 24 -9 0 -12 -6 -9 -15z"/>
<path d="M1818 7743 c7 -3 16 -2 19 1 4 3 -2 6 -13 5 -11 0 -14 -3 -6 -6z"/>
<path d="M1775 7704 c-19 -15 -19 -15 9 -12 16 2 31 9 34 16 5 17 -19 15 -43
-4z"/>
<path d="M1611 7523 c-1 -7 -19 -40 -41 -74 -22 -34 -40 -68 -40 -75 0 -7 -6
-15 -12 -17 -7 -3 12 -6 43 -6 65 -1 69 5 68 94 0 43 -16 111 -18 78z"/>
<path d="M1367 6928 c-10 -46 -21 -93 -24 -105 -4 -18 -1 -23 15 -23 13 0 23
9 28 23 3 12 24 58 45 102 22 43 39 80 39 82 0 2 -19 3 -43 3 l-42 0 -18 -82z"/>
<path d="M1335 6781 c-6 -11 9 -23 19 -14 9 9 7 23 -3 23 -6 0 -12 -4 -16 -9z"/>
<path d="M6329 5518 c-1 -37 -2 -39 -9 -18 -4 14 -9 18 -9 10 -1 -13 -2 -13
-11 0 -7 11 -10 4 -10 -27 0 -39 2 -43 25 -43 24 0 25 3 25 60 0 68 -9 83 -11
18z"/>
<path d="M6174 5508 c8 -5 29 -25 47 -46 l31 -37 -5 42 c-3 27 -1 43 7 46 6 2
-13 4 -42 4 -33 -1 -47 -4 -38 -9z m56 -2 c0 -3 -4 -8 -10 -11 -5 -3 -10 -1
-10 4 0 6 5 11 10 11 6 0 10 -2 10 -4z"/>
<path d="M6125 5500 c-3 -5 -1 -10 4 -10 6 0 11 5 11 10 0 6 -2 10 -4 10 -3 0
-8 -4 -11 -10z"/>
<path d="M6120 5455 c7 -9 8 -15 2 -15 -6 0 -8 -10 -4 -22 5 -21 4 -22 -13 -8
-17 14 -18 13 -11 -13 4 -19 3 -26 -4 -22 -5 3 -10 1 -10 -4 0 -18 19 -13 38
10 28 34 49 41 67 23 14 -15 14 -18 -6 -35 -29 -25 -21 -31 37 -27 l48 3 -26
28 c-52 56 -157 129 -118 82z"/>
<path d="M6315 5370 c23 -25 25 -25 25 3 0 18 -2 19 -10 7 -6 -10 -10 -11 -10
-2 0 6 -5 12 -12 12 -6 0 -3 -9 7 -20z"/>
<path d="M6068 5343 c7 -3 16 -2 19 1 4 3 -2 6 -13 5 -11 0 -14 -3 -6 -6z"/>
<path d="M160 2356 c0 -24 5 -36 14 -36 8 0 20 -2 28 -5 8 -3 18 6 25 26 14
37 38 34 38 -4 -1 -15 3 -27 7 -27 16 0 21 31 9 56 -15 33 -51 29 -69 -9 -14
-29 -32 -28 -32 3 0 10 -4 22 -10 25 -6 4 -10 -8 -10 -29z"/>
<path d="M175 2274 c-17 -18 -17 -55 1 -61 6 -2 10 7 10 19 -1 33 34 35 64 3
32 -34 40 -32 40 15 0 22 -4 40 -10 40 -5 0 -10 -9 -10 -20 0 -20 0 -20 -32 0
-40 24 -42 24 -63 4z"/>
<path d="M235 2180 c-3 -5 -19 -7 -35 -4 -25 6 -30 3 -36 -20 -3 -15 -1 -32 5
-40 13 -16 90 -18 109 -4 17 14 15 43 -4 62 -18 18 -30 20 -39 6z m-27 -37
c-4 -22 -22 -20 -26 1 -2 10 3 16 13 16 10 0 15 -7 13 -17z m60 0 c-2 -10 -10
-18 -18 -18 -8 0 -16 8 -18 18 -2 12 3 17 18 17 15 0 20 -5 18 -17z"/>
<path d="M160 2046 c0 -24 5 -36 14 -36 8 0 20 -2 28 -5 8 -3 18 6 25 26 14
37 38 34 38 -4 -1 -15 3 -27 7 -27 16 0 21 31 9 56 -15 33 -51 29 -69 -9 -14
-29 -32 -28 -32 3 0 10 -4 22 -10 25 -6 4 -10 -8 -10 -29z"/>
<path d="M235 1970 c-4 -6 -16 -8 -26 -5 -35 11 -69 -42 -39 -60 20 -12 93
-15 107 -4 18 15 16 44 -3 63 -18 19 -30 20 -39 6z m-27 -37 c-4 -22 -22 -20
-26 1 -2 10 3 16 13 16 10 0 15 -7 13 -17z m60 0 c-2 -10 -10 -18 -18 -18 -8
0 -16 8 -18 18 -2 12 3 17 18 17 15 0 20 -5 18 -17z"/>
<path d="M226 1861 c-3 -4 -17 -6 -30 -4 -20 4 -26 0 -31 -20 -7 -26 0 -47 14
-47 5 0 6 11 3 25 -3 18 0 25 12 25 9 0 16 -7 16 -15 0 -22 17 -18 23 6 8 29
32 18 32 -14 -1 -30 12 -36 22 -11 14 37 -41 87 -61 55z"/>
<path d="M176 1754 c-19 -18 -20 -28 -6 -55 19 -35 70 -17 70 26 1 17 3 16 16
-7 15 -28 34 -37 34 -17 0 18 -57 69 -79 69 -11 0 -27 -7 -35 -16z m42 -26
c-2 -12 -9 -23 -15 -26 -19 -6 -29 28 -12 39 23 14 31 10 27 -13z"/>
<path d="M176 1644 c-20 -19 -20 -48 -1 -64 20 -17 48 -9 61 19 l12 23 11 -21
c12 -22 31 -28 31 -10 0 18 -57 69 -79 69 -11 0 -27 -7 -35 -16z m41 -38 c-4
-9 -11 -16 -17 -16 -17 0 -24 31 -9 41 18 11 34 -5 26 -25z"/>
<path d="M7441 1648 c-30 -5 -60 -13 -68 -19 -14 -12 -19 -99 -5 -99 30 0 161
115 139 122 -6 2 -36 1 -66 -4z"/>
<path d="M7007 1622 c-5 -8 -17 -10 -29 -6 -11 3 -18 2 -15 -2 3 -5 -56 -9
-131 -9 l-137 0 -10 -66 c-9 -60 -12 -65 -30 -58 -11 4 -84 8 -162 8 l-143 1
0 39 c0 22 -3 42 -7 44 -5 3 -35 1 -68 -3 -33 -5 -96 -10 -140 -13 -120 -8
-125 -10 -125 -59 l0 -28 -95 0 c-75 0 -95 -3 -95 -14 0 -8 -7 -17 -16 -20
-21 -8 -21 -8 -26 12 -3 10 -15 18 -26 19 -25 2 -28 -7 -10 -25 9 -9 4 -12
-25 -12 -35 0 -37 2 -43 38 -5 32 -10 37 -35 40 -62 5 -108 6 -201 2 l-96 -5
-6 -36 c-5 -31 -9 -35 -33 -36 -16 0 -90 -3 -165 -8 l-138 -7 0 37 0 37 -137
-8 c-76 -4 -149 -7 -163 -7 -29 1 -40 -12 -40 -49 l0 -26 -102 -6 c-57 -4
-131 -8 -165 -9 l-61 -2 -6 38 -6 37 -83 0 c-52 0 -88 -5 -95 -12 -10 -10 -17
-10 -33 0 -13 8 -36 10 -69 6 -46 -6 -50 -9 -50 -33 0 -51 -5 -52 -176 -49
l-159 3 -3 38 c-3 30 -7 37 -25 38 -12 1 -86 4 -165 8 l-142 6 -6 -45 -6 -45
-56 1 c-32 1 -105 3 -164 5 l-108 4 0 30 c0 70 -3 72 -108 84 -54 6 -126 12
-162 13 l-65 3 -3 -84 c-2 -46 1 -88 7 -94 5 -5 48 -12 95 -14 48 -3 84 -8 81
-11 -6 -6 126 -98 137 -95 3 2 9 -15 13 -36 6 -37 9 -40 103 -84 160 -76 225
-99 234 -85 4 7 8 18 8 23 0 6 4 4 8 -2 4 -7 26 -19 47 -27 l40 -15 -35 -1
c-34 -2 -35 -2 -8 -10 15 -4 44 -18 63 -30 19 -12 35 -17 35 -11 0 8 10 6 30
-4 16 -8 37 -15 47 -15 10 -1 36 -9 58 -20 35 -16 40 -17 43 -3 3 10 11 13 25
9 12 -4 85 -22 162 -41 97 -24 145 -41 155 -54 12 -16 47 -25 170 -44 143 -22
156 -22 163 -7 7 14 17 15 60 9 28 -5 101 -11 163 -15 95 -6 113 -10 117 -24
4 -16 21 -17 166 -16 132 1 163 4 171 16 7 11 47 18 167 26 138 10 160 10 170
-3 11 -14 25 -13 135 2 68 10 140 20 160 23 25 3 39 10 43 22 3 11 20 21 38
25 18 4 90 20 162 37 90 22 130 28 133 19 2 -6 10 -11 17 -11 26 0 325 102
325 111 0 5 11 9 24 9 13 0 69 18 123 41 54 22 117 48 140 57 30 11 44 23 48
42 5 20 27 35 103 73 54 26 125 64 160 84 56 31 64 34 75 20 10 -14 15 -14 30
-3 17 13 16 14 -3 19 -27 7 -25 24 3 33 12 4 34 16 49 28 14 11 37 29 50 40
l23 18 -25 -7 c-41 -10 -104 -39 -112 -50 -9 -12 -9 -14 -17 135 -3 67 -9 110
-14 102z m-229 -309 c-62 -3 -78 -7 -81 -21 -3 -12 -5 -11 -6 6 -1 21 2 22 82
20 l82 -2 -77 -3z m-438 -313 c0 -5 -5 -10 -11 -10 -5 0 -7 5 -4 10 3 6 8 10
11 10 2 0 4 -4 4 -10z"/>
<path d="M188 1543 c-19 -5 -34 -45 -23 -62 11 -18 22 -12 21 12 -1 32 34 34
64 2 32 -34 40 -32 40 15 0 44 -20 56 -21 13 0 -16 -3 -22 -6 -15 -7 17 -54
39 -75 35z"/>
<path d="M190 1449 c0 -5 -4 -7 -10 -4 -5 3 -10 2 -10 -4 0 -5 6 -12 13 -15 9
-5 9 -7 0 -12 -10 -4 -9 -9 2 -20 8 -9 20 -12 26 -8 6 3 14 1 18 -5 5 -8 15
-9 31 -3 19 7 21 10 7 15 -23 9 -22 28 1 20 13 -5 12 -1 -5 15 -13 13 -29 19
-37 16 -9 -3 -16 -1 -16 5 0 6 -4 11 -10 11 -5 0 -10 -5 -10 -11z m40 -39 c0
-5 -4 -10 -10 -10 -5 0 -10 5 -10 10 0 6 5 10 10 10 6 0 10 -4 10 -10z"/>
<path d="M140 1280 c0 -6 38 -10 95 -10 57 0 95 4 95 10 0 6 -38 10 -95 10
-57 0 -95 -4 -95 -10z"/>
<path d="M261 1189 c-22 -18 -25 -19 -42 -3 -11 10 -22 14 -27 10 -4 -4 4 -16
17 -27 l23 -19 -46 0 c-34 0 -46 -4 -46 -15 0 -12 15 -15 75 -15 60 0 75 3 75
15 0 9 -9 15 -22 15 l-23 0 24 19 c13 10 22 23 20 29 -2 6 -14 3 -28 -9z"/>
<path d="M190 1081 c0 -27 27 -51 55 -51 24 0 45 25 45 54 0 25 -18 19 -22 -6
-2 -17 -10 -23 -28 -23 -18 0 -26 6 -28 23 -4 27 -22 30 -22 3z"/>
<path d="M206 994 c-19 -18 -20 -28 -6 -55 21 -39 90 -16 90 30 0 16 -30 41
-50 41 -10 0 -26 -7 -34 -16z m59 -29 c0 -22 -31 -33 -47 -17 -17 17 -1 44 24
40 15 -2 23 -10 23 -23z"/>
<path d="M190 900 c0 -5 -7 -10 -15 -10 -8 0 -15 -4 -15 -10 0 -5 6 -10 14
-10 8 0 16 -6 19 -12 4 -10 7 -10 18 0 7 6 26 12 41 12 28 0 48 24 33 38 -4 4
-10 1 -12 -5 -5 -15 -63 -18 -63 -3 0 6 -4 10 -10 10 -5 0 -10 -4 -10 -10z"/>
<path d="M212 810 c-19 -34 -35 -34 -40 -2 -4 29 -22 28 -22 -1 0 -52 52 -63
78 -17 20 35 37 34 37 -4 -1 -31 19 -29 23 3 8 53 -49 69 -76 21z"/>
<path d="M200 675 c-21 -25 3 -65 38 -65 15 0 33 5 40 12 15 15 16 54 2 63 -6
3 -10 -5 -10 -19 0 -14 -4 -28 -10 -31 -6 -4 -10 7 -10 24 0 24 -4 31 -19 31
-10 0 -24 -7 -31 -15z m30 -26 c0 -11 -4 -17 -10 -14 -5 3 -10 13 -10 21 0 8
5 14 10 14 6 0 10 -9 10 -21z"/>
<path d="M197 560 c-8 -21 -18 -30 -34 -30 -14 0 -23 -6 -23 -15 0 -13 13 -15
73 -13 67 3 72 5 75 26 5 30 -24 62 -55 62 -18 0 -28 -8 -36 -30z m61 -2 c19
-19 14 -28 -18 -28 -18 0 -30 5 -30 13 0 28 27 36 48 15z"/>
<path d="M206 464 c-19 -18 -20 -28 -6 -55 12 -22 59 -26 78 -7 26 26 1 78
-38 78 -10 0 -26 -7 -34 -16z m59 -29 c0 -22 -31 -33 -47 -17 -17 17 -1 44 24
40 15 -2 23 -10 23 -23z"/>
<path d="M140 350 c0 -5 10 -10 23 -10 16 0 26 -9 34 -30 9 -24 17 -30 42 -30
24 0 34 6 43 24 20 45 6 56 -72 56 -40 0 -70 -4 -70 -10z m128 -27 c-2 -12
-12 -18 -28 -18 -16 0 -26 6 -28 18 -3 13 3 17 28 17 25 0 31 -4 28 -17z"/>
<path d="M220 246 c-68 -24 -89 -49 -48 -59 13 -2 44 -12 71 -20 28 -9 47 -11
47 -5 0 5 -9 12 -20 15 -13 4 -20 14 -20 30 0 16 7 27 20 30 11 3 20 12 20 19
0 8 -1 14 -2 13 -2 0 -32 -11 -68 -23z m8 -44 c-1 -5 -14 -5 -28 -1 l-25 6 25
10 c24 10 36 3 28 -15z"/>
</g>
</svg>
