<?xml version="1.0" standalone="no"?>
<!DOCTYPE svg PUBLIC "-//W3C//DTD SVG 20010904//EN"
 "http://www.w3.org/TR/2001/REC-SVG-20010904/DTD/svg10.dtd">
<svg version="1.0" xmlns="http://www.w3.org/2000/svg"
 width="30.000000pt" height="30.000000pt" viewBox="0 0 30.000000 30.000000"
 preserveAspectRatio="xMidYMid meet">

<g transform="translate(0.000000,30.000000) scale(0.100000,-0.100000)"
fill="#000000" stroke="none">
<path d="M78 279 c-43 -22 -78 -81 -78 -129 0 -76 74 -150 150 -150 76 0 150
74 150 150 0 50 -35 107 -80 130 -49 25 -94 25 -142 -1z m139 -9 c48 -29 90
-108 66 -123 -17 -10 -52 5 -58 24 -12 38 -25 17 -25 -41 l0 -60 31 0 c27 0
30 -2 18 -16 -38 -46 -114 -56 -169 -22 l-35 22 28 10 c25 9 27 14 27 63 l0
53 -33 -20 c-48 -29 -61 -26 -53 12 19 97 123 147 203 98z"/>
<path d="M140 150 c0 -40 4 -70 10 -70 6 0 10 30 10 70 0 40 -4 70 -10 70 -6
0 -10 -30 -10 -70z"/>
</g>
</svg>
